# xmcd CD database file
#
# Track frame offsets:
#	150
#	16571
#	40822
#	62105
#	82394
#	97744
#	115866
#	133608
#	149377
#	166521
#	184760
#
# Disc length: 2656 seconds
#
# Revision: 1
# Processed by: cddbd v1.5.2PL0 Copyright (c) Steve Scherf et al.
# Submitted via: CDex 1.79
#
DISCID=860a5e0b
DTITLE=Miles Davis - Blue Note Volume 2
DYEAR=1954
DGENRE=Jazz
TTITLE0=TAKE - OFF
TTITLE1=WEIRDO
TTITLE2=WOULD'N YOU
TTITLE3=I WAITED FOR YOU
TTITLE4=RAY'S IDEA - Alternate Master
TTITLE5=DONNA
TTITLE6=WELL YOU NEEDN'T
TTITLE7=THE LAMP
TTITLE8=LAZY SUSAN
TTITLE9=TEMPUS FUGIT Alternate Master
TTITLE10=IT NEVER ENTERED MY MIND
EXTD=YEAR: 1954
EXTT0=
EXTT1=
EXTT2=
EXTT3=
EXTT4=
EXTT5=
EXTT6=
EXTT7=
EXTT8=
EXTT9=
EXTT10=
PLAYORDER=
